HIERARCHY
ROOT root
{
	OFFSET 0.000000 0.000000 0.000000
	CHANNELS 6 Xposition Yposition Zposition Zrotation Yrotation Xrotation
	JOINT lhip
	{
		OFFSET 0.058581 -0.082280 -0.017664
		CHANNELS 3 Zrotation Yrotation Xrotation
		JOINT lknee
		{
			OFFSET 0.043451 -0.386469 0.008037
			CHANNELS 3 Zrotation Yrotation Xrotation
			JOINT lankle
			{
				OFFSET -0.014790 -0.426874 -0.037428
				CHANNELS 3 Zrotation Yrotation Xrotation
				JOINT ltoe
				{
					OFFSET 0.041054 -0.060286 0.122042
					CHANNELS 3 Zrotation Yrotation Xrotation
					End Site
					{
						OFFSET 0.000000 0.000000 0.000000
					}
				}
			}
		}
	}
	JOINT rhip
	{
		OFFSET -0.060310 -0.090513 -0.013543
		CHANNELS 3 Zrotation Yrotation Xrotation
		JOINT rknee
		{
			OFFSET -0.043257 -0.383688 -0.004843
			CHANNELS 3 Zrotation Yrotation Xrotation
			JOINT rankle
			{
				OFFSET 0.019056 -0.420046 -0.034562
				CHANNELS 3 Zrotation Yrotation Xrotation
				JOINT rtoe
				{
					OFFSET -0.034840 -0.062106 0.130323
					CHANNELS 3 Zrotation Yrotation Xrotation
					End Site
					{
						OFFSET 0.000000 0.000000 0.000000
					}
				}
			}
		}
	}
	JOINT lowerback
	{
		OFFSET 0.004439 0.124404 -0.038385
		CHANNELS 3 Zrotation Yrotation Xrotation
		JOINT upperback
		{
			OFFSET 0.004488 0.137956 0.026820
			CHANNELS 3 Zrotation Yrotation Xrotation
			JOINT chest
			{
				OFFSET -0.002265 0.056032 0.002855
				CHANNELS 3 Zrotation Yrotation Xrotation
				JOINT lowerneck
				{
					OFFSET -0.013390 0.211636 -0.033468
					CHANNELS 3 Zrotation Yrotation Xrotation
					JOINT upperneck
					{
						OFFSET 0.010113 0.088937 0.050410
						CHANNELS 3 Zrotation Yrotation Xrotation
						End Site
						{
							OFFSET 0.000000 0.000000 0.000000
						}
					}
				}
				JOINT lclavicle
				{
					OFFSET 0.071702 0.114000 -0.018898
					CHANNELS 3 Zrotation Yrotation Xrotation
					JOINT lshoulder
					{
						OFFSET 0.122921 0.045205 -0.019046
						CHANNELS 3 Zrotation Yrotation Xrotation
						JOINT lelbow
						{
							OFFSET 0.255332 -0.015649 -0.022946
							CHANNELS 3 Zrotation Yrotation Xrotation
							JOINT lwrist
							{
								OFFSET 0.265709 0.012698 -0.007375
								CHANNELS 3 Zrotation Yrotation Xrotation
								End Site
								{
									OFFSET 0.000000 0.000000 0.000000
								}
							}
						}
					}
				}
				JOINT rclavicle
				{
					OFFSET -0.082954 0.112472 -0.023707
					CHANNELS 3 Zrotation Yrotation Xrotation
					JOINT rshoulder
					{
						OFFSET -0.113228 0.046853 -0.008472
						CHANNELS 3 Zrotation Yrotation Xrotation
						JOINT relbow
						{
							OFFSET -0.260127 -0.014369 -0.031269
							CHANNELS 3 Zrotation Yrotation Xrotation
							JOINT rwrist
							{
								OFFSET -0.269108 0.006794 -0.006027
								CHANNELS 3 Zrotation Yrotation Xrotation
								End Site
								{
									OFFSET 0.000000 0.000000 0.000000
								}
							}
						}
					}
				}
			}
		}
	}
}
MOTION
Frames: 13
Frame Time: 0.033333
1.997790 -0.178830 0.999548 -91.926955 6.191996 85.340707 4.888925 6.806472 10.026481 -2.355279 -13.900281 0.313005 6.220856 9.346031 -17.400447 0.000000 -0.000000 0.000000 3.924197 -1.349134 4.822790 3.522159 3.544954 7.288419 2.285909 -0.037924 -10.951658 0.000000 -0.000000 0.000000 -2.542217 -2.895133 4.860666 3.311291 -5.831655 3.332807 1.241137 -3.717916 3.388358 2.698066 3.230146 20.538938 4.887735 0.582764 8.456786 -23.597427 5.121449 6.997771 -62.081069 -8.072586 6.200305 12.784231 -25.913852 3.132743 -5.603771 3.241413 -8.762370 22.306616 -4.860479 1.142102 66.345505 1.049917 8.390398 -13.820979 23.275184 -5.156588 10.195423 -1.051080 -14.994366 
1.998209 -0.178556 0.999476 -92.163009 6.111147 85.552319 4.718916 6.730754 9.819337 -2.259264 -13.714612 0.195528 6.159201 9.427055 -17.345449 0.000000 -0.000000 0.000000 3.950511 -1.200449 4.483105 3.401931 3.735181 7.378808 2.409166 -0.194044 -11.095129 0.000000 -0.000000 0.000000 -2.305377 -2.908140 4.677976 3.295187 -5.656645 2.977201 1.303901 -3.686347 3.684335 2.747394 3.059718 17.198372 4.487132 0.187077 7.117334 -23.756274 5.303394 6.248085 -61.968223 -7.830321 6.343496 12.344403 -25.703921 3.764657 -5.773417 3.092824 -8.649857 22.277038 -5.046779 0.823222 66.299014 0.810720 8.501042 -13.917305 23.174359 -5.340976 9.786924 -0.972771 -15.014307 
1.998837 -0.177979 0.999673 -92.321163 6.046959 85.723257 4.660909 6.735186 9.605861 -2.227446 -13.720069 0.168148 5.978251 9.384289 -17.337960 0.000000 -0.000000 0.000000 4.025587 -1.085685 4.223898 3.240558 4.028768 7.415820 2.582518 -0.473591 -11.130154 0.000000 -0.000000 0.000000 -2.105289 -2.947370 4.522634 3.251082 -5.455839 2.776800 1.428612 -3.479655 4.059193 3.123913 4.559822 12.981760 4.109647 1.185685 6.292339 -24.006079 5.530068 5.287705 -61.709560 -7.596963 6.516996 11.887771 -25.610848 4.266690 -5.375128 2.638371 -8.279087 22.574619 -5.395175 0.212280 65.862472 0.576009 8.837315 -13.952487 23.035471 -5.443939 9.412779 -0.665935 -14.682077 
1.999108 -0.177153 0.999459 -92.246639 5.981449 85.913876 4.680510 7.135931 9.427545 -2.222760 -14.104049 0.136141 6.105888 9.270137 -17.358362 0.000000 -0.000000 0.000000 3.923343 -1.368729 4.027306 3.307955 4.083807 7.524346 2.571728 -0.439156 -11.076714 0.000000 -0.000000 0.000000 -1.800168 -2.840464 4.241830 3.437728 -5.230114 2.725931 1.506323 -3.287917 3.986646 3.069043 4.170451 12.695328 3.873310 0.840665 6.249739 -24.261440 5.432065 5.048999 -61.750926 -7.572918 6.550907 12.093080 -25.432402 4.254401 -5.966178 2.731494 -8.287189 22.584565 -5.388879 0.464796 65.514860 0.403950 8.693351 -14.275907 22.973022 -5.701346 9.737106 -0.772789 -14.458491 
1.999283 -0.176992 0.999477 -92.048933 5.908440 85.886620 4.655600 7.495257 9.406895 -2.181142 -14.443327 0.241775 6.042163 9.060615 -17.381383 0.000000 -0.000000 0.000000 3.861491 -1.414275 4.098197 3.253956 3.858627 7.534314 2.622069 -0.327854 -11.057322 0.000000 -0.000000 0.000000 -1.575899 -2.764052 4.261415 3.485221 -5.061874 2.678405 1.486849 -3.106164 3.985552 3.058186 3.930974 12.847678 3.745228 0.628657 6.256993 -24.433030 5.392501 4.899357 -61.527352 -7.640677 6.616035 12.115802 -25.603134 4.796572 -6.296533 3.155206 -7.113187 22.471018 -5.527004 0.427098 65.501584 0.261633 8.313916 -14.412845 22.889662 -6.207416 9.914392 -0.791778 -14.447877 
2.000575 -0.176664 0.999722 -91.430864 5.967733 85.993379 4.646444 7.898483 9.066968 -1.873903 -15.171938 0.382466 5.937203 8.735276 -17.327066 0.000000 -0.000000 0.000000 3.966037 -1.476142 4.010985 3.289337 3.427386 7.416210 2.532280 -0.376563 -10.964657 0.000000 -0.000000 0.000000 -1.259030 -2.778812 4.439829 3.646588 -4.845234 2.586330 1.640893 -2.789583 3.753727 3.019850 3.530578 13.091957 3.577206 0.389484 6.283428 -24.622677 5.121975 4.843945 -61.447917 -7.759267 6.672876 12.271366 -25.811151 5.006320 -7.233653 3.298063 -6.724804 22.392783 -5.526677 0.552234 65.402306 0.208876 7.763012 -14.939825 22.627339 -7.060474 10.194444 -0.790581 -14.583484 
2.000526 -0.176331 0.999628 -90.726315 5.835979 85.952311 4.571804 8.646916 9.104825 -1.632561 -16.091280 0.369064 5.828335 8.309130 -17.468824 0.000000 -0.000000 0.000000 3.585246 -1.843317 4.178998 3.681489 2.958124 7.394601 2.439804 -0.308005 -11.001342 0.000000 -0.000000 0.000000 -0.939452 -2.588532 4.572057 3.626514 -4.577606 2.484940 1.654819 -2.567317 3.673523 2.919754 3.160266 13.241606 3.393792 0.078212 6.410407 -24.504688 4.924809 4.703960 -61.451381 -7.734104 6.764599 12.026329 -26.196490 5.492482 -7.381928 3.218464 -6.581258 22.192106 -5.501096 0.911339 65.415666 -0.108838 7.450806 -15.052277 22.856395 -7.167447 10.220661 -0.726637 -14.547229 
2.001447 -0.175703 0.999609 -89.755372 5.815512 86.179163 4.558052 9.025778 8.730255 -1.421897 -16.962556 0.372834 5.681481 7.907043 -17.476541 0.000000 -0.000000 0.000000 3.785225 -1.767305 3.920659 3.495937 2.504133 7.428090 2.495873 -0.722129 -11.101419 0.000000 -0.000000 0.000000 -0.738729 -2.401591 4.656086 3.680543 -4.144851 2.229702 1.874816 -2.348981 3.790031 2.734608 2.850963 13.052328 3.363347 -0.055289 6.832694 -24.590857 4.626224 4.518329 -61.758257 -8.087812 6.747999 11.731216 -25.580647 4.297374 -5.554061 2.806932 -7.187672 22.051750 -5.675254 0.932416 65.247217 -0.482789 7.614229 -14.752376 23.298136 -6.845467 9.635944 -0.658470 -14.591030 
2.001596 -0.174982 0.999419 -88.813685 5.661552 86.370950 4.566745 8.969159 8.551510 -1.531257 -17.335462 0.122176 5.352353 7.551719 -17.258499 0.000000 -0.000000 0.000000 3.697440 -1.968259 3.805491 3.519267 2.142220 7.405601 2.597030 -0.924460 -11.133435 0.000000 -0.000000 0.000000 -0.600488 -1.993345 4.673725 3.581633 -3.745037 1.939615 1.940526 -2.116733 3.973818 2.736999 2.683966 12.611592 3.419535 -0.137084 7.370951 -24.472030 4.473243 4.201344 -62.235753 -8.411279 6.646118 11.290522 -24.471791 2.277835 -3.907896 1.270308 -8.649711 21.862265 -5.826792 1.164812 65.402315 -0.801813 7.827861 -14.736932 23.409380 -6.865074 8.967878 -0.479651 -14.969284 
1.999872 -0.176507 1.000011 -87.664829 5.361475 85.527428 3.870649 5.344936 9.780472 -1.616393 -15.509267 -0.021059 5.011379 8.526230 -17.339029 0.000000 -0.000000 0.000000 3.167516 -1.863874 5.211388 3.723693 1.721905 6.824432 3.215731 -1.396665 -11.103195 0.000000 -0.000000 0.000000 -0.045206 -1.200053 5.441481 3.154906 -3.314852 2.071138 1.643336 -1.953307 4.096065 2.494801 2.193407 12.483766 3.260972 -0.273089 8.066458 -24.406922 4.453413 3.496881 -62.447889 -8.503074 7.028790 10.871945 -24.150753 1.939680 -3.373435 -0.305261 -9.571843 21.535802 -6.471711 0.906624 65.609399 -0.829832 8.123780 -12.336656 24.749357 -8.299278 11.512171 3.643008 -19.417628 
1.999161 -0.177493 1.000522 -87.571597 4.820451 85.211949 2.922830 1.163627 10.014065 -2.271771 -12.522005 0.205046 5.084354 9.974763 -16.578074 0.000000 -0.000000 0.000000 2.565846 -2.123971 5.606288 3.761731 2.126864 6.826560 3.034385 -1.728642 -11.187137 0.000000 -0.000000 0.000000 0.073126 0.030501 5.440183 2.789840 -3.085875 2.162027 1.359055 -1.799122 4.128582 2.363555 1.845087 12.620223 3.089560 -0.482968 8.019544 -24.355521 4.787371 3.114013 -62.754584 -8.487541 7.270192 11.339631 -24.032573 1.962212 -4.318009 -0.157747 -9.840699 21.257809 -6.601934 0.908565 66.157336 -0.989265 8.564309 -13.519911 23.925105 -7.615136 12.112518 1.756326 -18.294100 
1.999894 -0.178257 1.001354 -86.142456 4.670471 85.137619 2.778751 1.073951 9.646972 -2.141217 -13.236759 0.530510 4.900498 9.587572 -16.629751 0.000000 -0.000000 0.000000 2.715265 -1.546971 5.842640 3.659322 1.167894 6.909012 2.967509 -2.898275 -11.549491 0.000000 -0.000000 0.000000 0.152151 -0.087064 5.549310 2.645509 -2.865031 1.956057 1.301600 -1.929749 4.355770 2.501143 1.488083 12.371705 2.710465 -0.833616 8.399335 -24.651233 5.082855 2.923191 -62.713326 -8.388718 7.314330 11.455411 -23.973884 2.371530 -4.434886 -0.009642 -9.438079 21.558133 -6.405377 0.803570 65.615251 -0.765657 8.831231 -13.526240 23.338672 -7.299527 11.889464 1.386904 -17.281097 
2.001298 -0.177854 1.001595 -85.312476 4.652037 85.226195 2.952403 1.056211 9.090608 -2.345085 -13.479328 0.927110 4.864653 9.111004 -16.670684 0.000000 -0.000000 0.000000 2.801644 -1.970782 5.452825 3.675179 1.123520 7.347263 2.981406 -3.015901 -11.881689 0.000000 -0.000000 0.000000 0.214134 0.215148 5.737250 2.626554 -2.744854 1.686553 1.233172 -1.804449 4.307930 2.226663 1.237424 12.785859 2.387202 -1.219972 8.600575 -24.594708 5.171701 2.861331 -63.076138 -8.201666 7.503009 11.450192 -23.312256 3.052687 -4.046506 -0.082314 -9.015572 21.702123 -6.272886 0.663979 65.319838 -0.606757 8.951092 -13.133724 22.697589 -6.478052 11.457466 1.410557 -16.247871 
